<?xml version="1.0" encoding="UTF-8"?>
<svg xmlns="http://www.w3.org/2000/svg" width="332" height="265" viewBox="0 0 332 265" fill="none">
  <path fill-rule="evenodd" clip-rule="evenodd" d="M124.829 18.5452H225.593C227.787 18.5452 229.583 20.0872 229.583 21.9717V139.468C229.583 141.352 227.787 142.894 225.593 142.894H124.829C122.634 142.894 120.839 141.352 120.839 139.468V21.9694C120.839 20.085 122.634 18.543 124.829 18.543" fill="#B2D2FF"></path>
  <path d="M223.35 26.6484H127.362V135.862H223.35V26.6484Z" fill="white"></path>
  <path d="M146.16 51.2762H135.95C135.593 51.2762 135.271 51.4182 135.036 51.6481H135.033C134.801 51.8753 134.656 52.1929 134.656 52.5415V62.5273C134.656 62.876 134.801 63.191 135.036 63.4208C135.271 63.6506 135.596 63.7927 135.95 63.7927H146.16C146.517 63.7927 146.842 63.6506 147.074 63.4234C147.309 63.191 147.454 62.8734 147.454 62.5273V52.5415C147.454 52.1929 147.309 51.8753 147.077 51.6481H147.074C146.842 51.4182 146.517 51.2762 146.16 51.2762ZM135.95 49.7604H146.16C146.939 49.7604 147.65 50.0729 148.167 50.5764H148.17C148.685 51.0851 149.004 51.7798 149.004 52.5415V62.5273C149.004 63.2943 148.685 63.9889 148.17 64.4925C147.652 64.996 146.942 65.3085 146.163 65.3085H135.952C135.171 65.3085 134.458 64.996 133.943 64.4925C133.428 63.9889 133.108 63.2917 133.108 62.5273V52.5415C133.108 51.7772 133.428 51.0825 133.945 50.5764C134.46 50.0703 135.173 49.7578 135.955 49.7578L135.95 49.7604Z" fill="#9CC1F4"></path>
  <path fill-rule="evenodd" clip-rule="evenodd" d="M156.419 50.2754H175.84C176.487 50.2754 177.017 50.7944 177.017 51.4271C177.017 52.0598 176.487 52.5788 175.84 52.5788H156.419C155.772 52.5788 155.241 52.0598 155.241 51.4271C155.241 50.7944 155.772 50.2754 156.419 50.2754Z" fill="#9CC1F4"></path>
  <path d="M145.932 72.5082H135.893C135.544 72.5082 135.225 72.6476 134.995 72.8749H134.993C134.763 73.0996 134.62 73.4094 134.62 73.7529V83.5708C134.62 83.9117 134.763 84.2241 134.995 84.4488C135.228 84.676 135.544 84.8155 135.893 84.8155H145.932C146.283 84.8155 146.603 84.6761 146.83 84.4514C147.06 84.2216 147.205 83.9117 147.205 83.5708V73.7529C147.205 73.4094 147.062 73.097 146.833 72.8749H146.83C146.6 72.6476 146.283 72.5082 145.932 72.5082ZM135.893 71.0182H145.932C146.698 71.0182 147.398 71.3255 147.905 71.8213H147.907C148.414 72.3197 148.728 73.004 148.728 73.7529V83.5708C148.728 84.3249 148.414 85.0092 147.907 85.5024C147.4 85.9982 146.701 86.3055 145.932 86.3055H135.893C135.122 86.3055 134.422 85.9982 133.918 85.5024C133.411 85.0066 133.097 84.3223 133.097 83.5708V73.7529C133.097 73.0014 133.411 72.3197 133.921 71.8213C134.427 71.3255 135.127 71.0156 135.896 71.0156L135.893 71.0182Z" fill="#9CC1F4"></path>
  <path fill-rule="evenodd" clip-rule="evenodd" d="M139.472 80.0699L144.682 75.3211C145.089 74.9518 145.728 74.975 146.105 75.3727C146.483 75.7704 146.459 76.3953 146.053 76.7646L140.077 82.2107L140.061 82.2236C139.644 82.5799 139.005 82.5386 138.641 82.1306L135.762 78.9079C135.398 78.4999 135.44 77.875 135.858 77.5186C136.275 77.1622 136.914 77.2036 137.278 77.6116L139.472 80.0725V80.0699Z" fill="#FB7019"></path>
  <path d="M174.207 3.99873C175.921 3.99873 177.307 5.35703 177.307 7.03036C177.307 8.7037 175.918 10.0646 174.207 10.0646C172.496 10.0646 171.104 8.70628 171.104 7.03036C171.104 5.35444 172.493 3.99873 174.207 3.99873ZM141.507 26.6482H206.91V24.1201C206.91 19.2085 202.077 16.5333 196.638 16.5333H189.366V15.3609C189.366 13.073 187.452 11.2008 185.112 11.2008H182.023V11.1672V8.56684C182.023 4.36542 178.506 0.925781 174.21 0.925781C169.913 0.925781 166.396 4.36284 166.396 8.56684V11.2008H163.307C160.967 11.2008 159.053 13.073 159.053 15.3609V16.5333H151.707C143.904 16.5333 141.509 20.5074 141.509 24.1201V26.6482H141.507Z" fill="#187CB9"></path>
  <path fill-rule="evenodd" clip-rule="evenodd" d="M156.419 56.3379H215.302C215.949 56.3379 216.48 56.8569 216.48 57.4896C216.48 58.1223 215.949 58.6413 215.302 58.6413H156.419C155.769 58.6413 155.241 58.1223 155.241 57.4896C155.241 56.8569 155.772 56.3379 156.419 56.3379Z" fill="#9CC1F4"></path>
  <path fill-rule="evenodd" clip-rule="evenodd" d="M156.419 62.4004H215.302C215.949 62.4004 216.48 62.9194 216.48 63.5521C216.48 64.1848 215.949 64.7038 215.302 64.7038H156.419C155.769 64.7038 155.241 64.1848 155.241 63.5521C155.241 62.9194 155.772 62.4004 156.419 62.4004Z" fill="#9CC1F4"></path>
  <path fill-rule="evenodd" clip-rule="evenodd" d="M156.419 71.1426H175.84C176.487 71.1426 177.017 71.6616 177.017 72.2943C177.017 72.927 176.487 73.446 175.84 73.446H156.419C155.772 73.446 155.241 72.927 155.241 72.2943C155.241 71.6616 155.772 71.1426 156.419 71.1426Z" fill="#9CC1F4"></path>
  <path fill-rule="evenodd" clip-rule="evenodd" d="M156.419 77.2051H215.302C215.949 77.2051 216.48 77.7241 216.48 78.3568C216.48 78.9895 215.949 79.5085 215.302 79.5085H156.419C155.769 79.5085 155.241 78.9895 155.241 78.3568C155.241 77.7241 155.772 77.2051 156.419 77.2051Z" fill="#9CC1F4"></path>
  <path fill-rule="evenodd" clip-rule="evenodd" d="M156.419 83.2695H215.302C215.949 83.2695 216.48 83.7886 216.48 84.4212C216.48 85.0539 215.949 85.5729 215.302 85.5729H156.419C155.769 85.5729 155.241 85.0539 155.241 84.4212C155.241 83.7886 155.772 83.2695 156.419 83.2695Z" fill="#9CC1F4"></path>
  <path fill-rule="evenodd" clip-rule="evenodd" d="M139.472 59.107L144.682 54.3582C145.089 53.9889 145.728 54.0121 146.105 54.4098C146.483 54.8075 146.459 55.4324 146.053 55.8017L140.077 61.2478L140.061 61.2607C139.644 61.617 139.005 61.5757 138.641 61.1677L135.762 57.945C135.398 57.537 135.44 56.9121 135.858 56.5557C136.275 56.1994 136.914 56.2407 137.278 56.6487L139.472 59.1096V59.107Z" fill="#FB7019"></path>
  <path fill-rule="evenodd" clip-rule="evenodd" d="M140.911 113.332C145.099 113.332 148.494 116.653 148.494 120.748C148.494 124.844 145.099 128.165 140.911 128.165C136.723 128.165 133.327 124.844 133.327 120.748C133.327 116.653 136.723 113.332 140.911 113.332Z" fill="#15A879"></path>
  <path d="M144.457 122.094H142.688C142.587 122.094 142.503 122.125 142.434 122.19C142.366 122.252 142.329 122.34 142.329 122.446V124.204C142.329 124.302 142.297 124.385 142.231 124.455C142.165 124.522 142.078 124.558 141.97 124.558H139.857C139.757 124.558 139.672 124.524 139.604 124.455C139.535 124.385 139.498 124.302 139.498 124.204V122.446C139.498 122.337 139.466 122.252 139.4 122.19C139.334 122.125 139.247 122.094 139.139 122.094H137.386C137.277 122.094 137.185 122.061 137.116 121.991C137.045 121.924 137.011 121.839 137.011 121.743V119.765C137.011 119.657 137.045 119.571 137.116 119.509C137.185 119.445 137.275 119.414 137.386 119.414H139.139C139.25 119.414 139.337 119.38 139.4 119.311C139.466 119.244 139.498 119.158 139.498 119.063V117.289C139.498 117.18 139.532 117.095 139.604 117.033C139.672 116.968 139.76 116.938 139.857 116.938H141.97C142.081 116.938 142.168 116.968 142.231 117.033C142.297 117.098 142.329 117.183 142.329 117.289V119.063C142.329 119.161 142.363 119.244 142.434 119.311C142.503 119.378 142.59 119.414 142.688 119.414H144.457C144.568 119.414 144.655 119.445 144.718 119.509C144.784 119.574 144.816 119.659 144.816 119.765V121.743C144.816 121.841 144.784 121.924 144.718 121.991C144.652 122.058 144.565 122.094 144.457 122.094Z" fill="white"></path>
  <path fill-rule="evenodd" clip-rule="evenodd" d="M156.419 116.947H169.542C170.189 116.947 170.72 117.466 170.72 118.099C170.72 118.732 170.189 119.251 169.542 119.251H156.419C155.772 119.251 155.241 118.732 155.241 118.099C155.241 117.466 155.772 116.947 156.419 116.947Z" fill="#9CC1F4"></path>
  <path fill-rule="evenodd" clip-rule="evenodd" d="M156.419 123.01H192C192.647 123.01 193.177 123.529 193.177 124.161C193.177 124.794 192.647 125.313 192 125.313H156.419C155.772 125.313 155.241 124.794 155.241 124.161C155.241 123.529 155.772 123.01 156.419 123.01Z" fill="#9CC1F4"></path>
  <path fill-rule="evenodd" clip-rule="evenodd" d="M143.666 38.543H207.345C213.983 38.543 219.417 39.1384 219.417 39.8664C219.417 40.5945 213.986 41.1899 207.345 41.1899H143.666C137.028 41.1899 131.597 40.5945 131.597 39.8664C131.597 39.1384 137.028 38.543 143.666 38.543Z" fill="#5B94EA"></path>
  <path d="M145.932 93.852H135.893C135.544 93.852 135.225 93.9914 134.995 94.2186H134.993C134.763 94.4433 134.62 94.7532 134.62 95.0966V104.915C134.62 105.255 134.763 105.568 134.995 105.793C135.228 106.017 135.544 106.159 135.893 106.159H145.932C146.283 106.159 146.603 106.02 146.83 105.795C147.06 105.565 147.205 105.255 147.205 104.915V95.0966C147.205 94.7532 147.062 94.4407 146.833 94.2186H146.83C146.6 93.9914 146.283 93.852 145.932 93.852ZM135.893 92.362H145.932C146.698 92.362 147.398 92.6693 147.905 93.1651H147.907C148.414 93.6634 148.728 94.3478 148.728 95.0966V104.915C148.728 105.669 148.414 106.353 147.907 106.846C147.4 107.342 146.701 107.649 145.932 107.649H135.893C135.122 107.649 134.422 107.342 133.918 106.846C133.411 106.35 133.097 105.666 133.097 104.915V95.0966C133.097 94.3452 133.411 93.6634 133.921 93.1651C134.427 92.6693 135.127 92.3594 135.896 92.3594L135.893 92.362Z" fill="#9CC1F4"></path>
  <path fill-rule="evenodd" clip-rule="evenodd" d="M139.472 101.416L144.682 96.6668C145.089 96.2975 145.728 96.3207 146.105 96.7184C146.483 97.1161 146.459 97.741 146.053 98.1103L140.077 103.556L140.061 103.569C139.644 103.926 139.005 103.884 138.641 103.476L135.762 100.254C135.398 99.8456 135.44 99.2207 135.858 98.8643C136.275 98.508 136.914 98.5493 137.278 98.9573L139.472 101.418V101.416Z" fill="#FB7019"></path>
  <path fill-rule="evenodd" clip-rule="evenodd" d="M156.419 92.4844H175.84C176.487 92.4844 177.017 93.0034 177.017 93.6361C177.017 94.2688 176.487 94.7878 175.84 94.7878H156.419C155.772 94.7878 155.241 94.2688 155.241 93.6361C155.241 93.0034 155.772 92.4844 156.419 92.4844Z" fill="#9CC1F4"></path>
  <path fill-rule="evenodd" clip-rule="evenodd" d="M156.419 98.5488H215.302C215.949 98.5488 216.48 99.0679 216.48 99.7005C216.48 100.333 215.949 100.852 215.302 100.852H156.419C155.769 100.852 155.241 100.333 155.241 99.7005C155.241 99.0679 155.772 98.5488 156.419 98.5488Z" fill="#9CC1F4"></path>
  <path fill-rule="evenodd" clip-rule="evenodd" d="M156.419 104.611H215.302C215.949 104.611 216.48 105.13 216.48 105.763C216.48 106.396 215.949 106.915 215.302 106.915H156.419C155.769 106.915 155.241 106.396 155.241 105.763C155.241 105.13 155.772 104.611 156.419 104.611Z" fill="#9CC1F4"></path>
  <path fill-rule="evenodd" clip-rule="evenodd" d="M290.991 254.221L290.28 246.885L297.806 247.06L297.734 255.461L290.991 254.221Z" fill="#F4AF8F"></path>
  <path fill-rule="evenodd" clip-rule="evenodd" d="M290.623 253.602C288.495 257.338 285.03 260.912 287.737 264.088H301.515C301.539 264.029 301.56 263.962 301.581 263.892C301.716 263.456 302.357 263.275 301.927 261.684C301.129 258.727 298.782 254.185 297.977 253.953C296.379 253.491 294.108 254.795 290.625 253.604" fill="#031542"></path>
  <path fill-rule="evenodd" clip-rule="evenodd" d="M267.917 152.552L275.978 184.577L280.095 203.643L289.231 250.083C289.231 250.083 291.164 250.945 294.256 250.77C297.345 250.594 298.906 250.147 298.906 250.147C298.975 236.435 299.323 217.995 299.445 201.422C299.55 186.845 299.933 173.884 299.991 162.829C300.015 158.044 294.454 144.51 294.525 144.683L267.92 152.549L267.917 152.552Z" fill="#023452"></path>
  <path fill-rule="evenodd" clip-rule="evenodd" d="M269.487 158.782L271.555 166.991C282.133 168.28 293.181 167.396 299.972 165.591C299.98 164.659 299.988 163.737 299.993 162.831C299.998 161.883 299.782 160.59 299.436 159.131C289.846 159.076 274.185 158.973 272.664 158.867C272.159 158.834 270.99 158.803 269.487 158.779" fill="#12143C"></path>
  <path fill-rule="evenodd" clip-rule="evenodd" d="M257.729 254.222L257.759 246.635L265.284 246.81L264.473 255.461L257.729 254.222Z" fill="#F4AF8F"></path>
  <path fill-rule="evenodd" clip-rule="evenodd" d="M257.229 252.598C257.229 252.598 245.413 257.349 242.099 258.937C239.525 260.172 238.067 262.767 240.182 264.089H265.938C265.961 264.03 265.983 263.962 266.004 263.893C266.387 262.648 267.387 253.755 264.707 253.953C263.044 254.077 260.947 254.475 257.227 252.6" fill="#031542"></path>
  <path fill-rule="evenodd" clip-rule="evenodd" d="M257.094 150.83L254.417 196.273L257.007 250.06C257.007 250.06 260.62 250.822 263.709 250.646C266.798 250.471 266.236 250.122 266.236 250.122L273.468 199.568C273.468 199.568 275.105 188.056 278.931 179.085C281.696 172.606 285.087 170.739 284.585 163.209C284.067 155.413 284.735 149.371 283.64 146.677C282.544 143.984 277.065 145.063 277.065 145.063L257.089 150.83H257.094Z" fill="#023452"></path>
  <path fill-rule="evenodd" clip-rule="evenodd" d="M256.632 158.672L256.315 164.066C262.737 165.967 271.62 167.929 284.384 167.571C284.661 166.256 284.711 165.053 284.59 163.209C284.492 161.753 284.437 160.356 284.405 159.031C278.48 158.982 273.487 158.925 272.66 158.871C270.828 158.747 260.2 158.69 256.632 158.674" fill="#12143C"></path>
  <path fill-rule="evenodd" clip-rule="evenodd" d="M271.855 210.888L273.473 199.567C273.473 199.567 274.366 193.292 276.372 186.397L274.841 175.668L271.659 202.576L271.855 210.888Z" fill="#12143C"></path>
  <path fill-rule="evenodd" clip-rule="evenodd" d="M270.61 111.041C266.005 120.923 264.281 131.684 251.102 133.605C241.778 133.858 222.627 125.729 223.886 122.586C225.257 119.167 220.369 116.458 225.727 116.556C232.846 116.536 250.276 118.3 251.881 118.189C253.402 118.085 258.525 96.5539 269.512 92.634C270.621 91.9367 273.853 106.266 270.61 111.041Z" fill="#15A879"></path>
  <path fill-rule="evenodd" clip-rule="evenodd" d="M228.182 126.825C225.262 125.191 223.472 123.618 223.886 122.585C225.257 119.166 220.369 116.457 225.727 116.555C226.836 116.553 228.193 116.591 229.703 116.661C230.654 117.973 233.176 122.056 230.327 125.072C229.664 125.774 228.932 126.35 228.185 126.825" fill="#065FB2"></path>
  <path fill-rule="evenodd" clip-rule="evenodd" d="M265.746 122.302C262.974 127.903 259.201 132.425 251.102 133.605C244.712 133.778 233.704 130.015 227.815 126.617C229.262 127.079 230.863 127.59 232.407 128.089C237.028 129.576 247.91 132.254 252.787 129.545C257.664 126.834 259.562 116.895 259.562 116.895C259.562 116.895 264.001 120.672 265.749 122.304" fill="#065FB2"></path>
  <path fill-rule="evenodd" clip-rule="evenodd" d="M223.885 116.261C223.246 115.283 220.661 111.435 219.623 111.012C219.092 110.795 219.066 110.994 218.981 111.285C218.907 111.541 218.992 112.132 219.182 112.489C219.578 113.232 219.562 114.756 219.842 115.133C215.292 116.91 209.357 113.85 208.921 116.342C209.137 116.804 211.292 118.901 211.701 119.585C213.003 121.757 213.882 122.689 223.615 123.141C226.905 123.293 226.845 120.096 226.222 117.909L223.887 116.264L223.885 116.261Z" fill="#F4B1B1"></path>
  <path fill-rule="evenodd" clip-rule="evenodd" d="M312.164 168.95C312.164 168.95 311.982 164.63 313.263 164.116C314.543 163.602 319.41 164.064 319.41 164.064C319.41 164.064 320.746 164.374 320.854 165.993C320.965 167.612 320.965 168.95 320.965 168.95H319.32C319.32 168.95 319.447 166.559 319.154 166.223C318.861 165.89 314.298 166.107 314.298 166.107C314.298 166.107 313.675 166.12 313.648 167.341C313.622 168.562 313.648 168.95 313.648 168.95H312.167H312.164Z" fill="#CE5600"></path>
  <path fill-rule="evenodd" clip-rule="evenodd" d="M304.776 168.219L331.203 168.833L331.271 206.631H304.776V168.219Z" fill="#EA6200"></path>
  <path fill-rule="evenodd" clip-rule="evenodd" d="M330.521 168.832H330.846L331.203 172.137L331.269 206.629H304.776V194.973C319.386 213.416 328.842 184.982 330.521 168.832Z" fill="#CE5600"></path>
  <path fill-rule="evenodd" clip-rule="evenodd" d="M302.017 131.579C300.665 140.321 300.108 150.74 300.874 164.362C282.86 167.388 266.814 166.774 256.054 163.424C255.222 151.396 254.974 95.7524 271.358 91.9564C277.278 90.3321 281.878 90.4793 288.157 91.1068C294.516 91.7421 298.637 93.2063 301.959 96.4109C313.089 106.627 317.052 142.03 318.88 156.909C319.146 159.089 313.939 162.474 311.283 160.191C310.427 159.182 309.324 157.168 308.436 154.255C305.975 146.175 303.277 133.681 302.015 131.585" fill="#15A879"></path>
  <path fill-rule="evenodd" clip-rule="evenodd" d="M318.381 152.919C318.658 155.029 318.809 156.32 319.073 158.456C319.34 160.635 313.784 163.424 311.128 161.141C310.264 160.124 309.538 158.249 308.413 154.918C310.557 153.087 315.02 152.584 318.381 152.919Z" fill="#065FB2"></path>
  <path fill-rule="evenodd" clip-rule="evenodd" d="M302.052 131.641C300.65 140.377 300.542 153.397 300.874 164.362C284.45 167.12 269.217 167.12 257.897 163.91C265.138 164.731 292.797 165.16 294.957 158.371C296.19 154.49 296.467 134.75 298.717 123.422C300.304 125.126 301.041 128.945 302.049 131.641" fill="#15A879"></path>
  <path fill-rule="evenodd" clip-rule="evenodd" d="M271.628 82.5893C272.895 85.0554 274.258 86.8553 276.238 87.7823L276.17 91.3666L275.636 91.8107C273.548 93.9979 276.109 97.0218 278.485 96.8824C287.835 97.3343 285.047 93.2026 286.608 90.6719L285.702 85.3498C286.013 85.3317 288.617 84.0018 289.288 83.8004C289.958 83.5964 290.946 82.3311 291.012 80.9934C291.078 79.6558 288.965 80.0896 288.965 80.0896C291.524 76.6655 294.423 73.8662 290.666 70.783C286.909 67.6997 278.277 65.8998 278.277 65.8998L273.083 64.1387C273.743 65.8921 272.861 71.741 271.525 75.3924C270.329 78.6693 269.927 79.2788 271.628 82.5893Z" fill="#F4B1B1"></path>
  <path fill-rule="evenodd" clip-rule="evenodd" d="M283.604 85.9785C283.604 85.9785 280.665 90.9081 278.252 91.3549C275.838 91.8016 277.071 91.4711 276.171 91.3652L276.24 87.781C277.903 88.0418 279.53 87.9152 283.604 85.9785Z" fill="#E98385"></path>
  <path fill-rule="evenodd" clip-rule="evenodd" d="M293.187 72.0033C294.063 69.2118 293.131 66.2757 290.317 64.1247C284.484 59.6676 279.475 62.1311 277.312 62.6502C275.817 63.0091 274.806 62.9704 273.335 63.2699C269.66 64.0214 269.346 71.4997 271.997 73.9581C272.261 74.2034 272.667 70.7767 272.963 70.9962C273.272 71.2622 273.618 71.5049 273.996 71.7192C278.315 73.8832 283.287 71.3164 285.804 74.2138C287.05 75.6495 286.923 77.718 285.529 80.9123C285.117 81.8548 284.568 82.5469 286.195 81.8109C286.942 81.4726 288.17 81.0001 288.59 81.3332C289.524 82.0717 289.052 83.6237 288.307 84.1221C287.974 84.3442 287.346 84.6773 287.346 84.6773C294.211 83.4042 295.817 73.9943 293.187 72.0033Z" fill="#12496F"></path>
  <path d="M312.204 159.879C312.141 162.518 311.953 163.678 311.774 166.244C311.734 166.812 312.685 167.876 313.442 168.594H319.217C319.217 168.594 319.233 168.581 319.238 168.574C320.041 168.021 320.416 165.891 320.361 165.139C320.411 165.113 320.258 164.651 320.036 164.052C319.645 162.998 319.038 161.514 318.929 161.219C318.676 160.519 318.214 159.897 318.362 159.146C316.41 158.544 313.693 158.985 312.204 159.882" fill="#F4B1B1"></path>
  <path fill-rule="evenodd" clip-rule="evenodd" d="M311.71 164.221H314.691C315.98 164.631 315.475 166.142 314.691 166.057H313.653V168.593H311.71V164.221Z" fill="#CE5600"></path>
  <path d="M305.263 168.219H297.69V206.631H305.263V168.219Z" fill="#F1841A"></path>
  <path fill-rule="evenodd" clip-rule="evenodd" d="M278.627 95.9336C279.736 97.1964 281.69 99.2106 282.799 100.471C285.716 97.8265 287.24 95.2906 288.761 91.5979C288.222 91.066 287.14 90.472 286.598 89.9375C285.371 92.2616 283.1 94.3403 278.624 95.9336" fill="#065FB2"></path>
  <path d="M269.55 139.34L273.537 146.844C275.319 144.311 277.102 141.778 278.884 139.245C277.997 128.758 278.794 113.471 278.908 100.487L280.746 98.4183L278.625 95.9238L276.133 97.6462L277.199 100.451C273.54 109.28 270.16 133.641 269.55 139.34Z" fill="#FACE04"></path>
  <path fill-rule="evenodd" clip-rule="evenodd" d="M278.628 95.9341C277.379 97.029 275.338 98.3769 274.089 99.4718C273.627 96.9851 273.936 94.2736 274.757 91.4073L276.128 90.6816C276.228 92.6907 277.4 94.395 278.628 95.9315" fill="#065FB2"></path>
  <path fill-rule="evenodd" clip-rule="evenodd" d="M296.092 253.236H292.902C292.464 253.236 292.104 253.588 292.104 254.016V258.029C292.104 258.458 292.464 258.809 292.902 258.809H296.092C296.53 258.809 296.889 258.458 296.889 258.029V254.016C296.889 253.588 296.53 253.236 296.092 253.236Z" fill="#0F4884"></path>
  <path fill-rule="evenodd" clip-rule="evenodd" d="M254.265 253.807C250.682 255.263 244.677 257.729 242.214 258.883C243.502 259.854 244.733 259.663 244.733 259.663C244.733 259.663 251.728 257.53 253.716 256.149C254.891 255.333 254.656 254.421 254.265 253.809" fill="#0F4884"></path>
  <path fill-rule="evenodd" clip-rule="evenodd" d="M294.31 116.306L283.943 115.412L283.655 117.431L294.025 118.328L294.31 116.306Z" fill="#E0ECF8"></path>
  <path fill-rule="evenodd" clip-rule="evenodd" d="M173.135 261.64C171.976 260.914 165.565 257.173 164.443 256.388C138.848 238.513 122.675 205.472 125.194 174.864L125.815 167.319L133.459 166.141C146.873 164.078 156.73 160.116 168.512 153.619L173.338 150.957L178.165 153.619C190.013 160.153 199.841 163.959 213.308 166.157L220.87 167.388L221.486 174.861C224.115 206.812 206.377 241.415 178.81 258.65L173.132 261.635L173.135 261.64Z" fill="#B7D5FF"></path>
  <path fill-rule="evenodd" clip-rule="evenodd" d="M173.339 150.959L178.166 153.621C190.014 160.155 199.842 163.961 213.308 166.158L220.871 167.39L221.486 174.863C224.116 206.814 206.377 241.417 178.81 258.652L173.339 261.531V150.959Z" fill="#CBE0FF"></path>
  <path fill-rule="evenodd" clip-rule="evenodd" d="M137.842 178.124C137.271 189.084 139.484 200.149 143.653 210.303C149.6 224.782 159.98 238.424 173.335 247.178C186.691 238.426 197.073 224.784 203.017 210.303C207.189 200.144 209.405 189.071 208.829 178.106C202.706 177.019 196.746 175.529 190.881 173.417C184.787 171.222 179.002 168.433 173.335 165.357C167.384 168.588 161.302 171.508 154.883 173.768C149.312 175.731 143.651 177.13 137.839 178.122" fill="#023452"></path>
  <path fill-rule="evenodd" clip-rule="evenodd" d="M137.842 178.126C137.271 189.085 139.484 200.15 143.653 210.304C149.6 224.783 159.98 238.425 173.335 247.179V165.361C167.384 168.592 161.302 171.512 154.883 173.772C149.312 175.734 143.651 177.134 137.839 178.126" fill="#187CB9"></path>
  <mask id="mask0_3305_3339" style="mask-type:luminance" maskUnits="userSpaceOnUse" x="173" y="169" width="33" height="75">
    <path d="M173.339 169.043V243.246C185.245 234.843 194.526 222.324 199.958 209.102C203.633 200.152 205.733 190.461 205.616 180.792C200.222 179.723 194.92 178.313 189.742 176.449C184.078 174.406 178.638 171.855 173.339 169.043Z" fill="white"></path>
  </mask>
  <g mask="url(#mask0_3305_3339)">
    <path d="M205.733 169.043H173.339V243.246H205.733V169.043Z" fill="#187CB9"></path>
  </g>
  <path fill-rule="evenodd" clip-rule="evenodd" d="M173.336 180.588C161.858 180.588 152.55 189.688 152.55 200.916C152.55 212.144 161.855 221.244 173.336 221.244C184.817 221.244 194.122 212.144 194.122 200.916C194.122 189.688 184.817 180.588 173.336 180.588Z" fill="#27AFA6"></path>
  <path fill-rule="evenodd" clip-rule="evenodd" d="M173.336 180.588C162.182 180.588 153.08 189.179 152.573 199.966C153.08 210.752 162.182 219.343 173.336 219.343C184.489 219.343 193.591 210.752 194.098 199.966C193.591 189.179 184.489 180.588 173.336 180.588Z" fill="#15A879"></path>
  <path fill-rule="evenodd" clip-rule="evenodd" d="M170.003 202.81L180.105 193.64C181.133 192.708 182.743 192.765 183.699 193.769C184.655 194.774 184.597 196.351 183.57 197.286L171.529 208.215L171.492 208.246C170.441 209.144 168.828 209.038 167.906 208.013L162.926 202.461C162.005 201.433 162.113 199.853 163.164 198.954C164.215 198.056 165.828 198.162 166.75 199.187L170.006 202.815L170.003 202.81Z" fill="white"></path>
  <path fill-rule="evenodd" clip-rule="evenodd" d="M68.7565 251.476L69.4325 244.535L62.2529 244.7L62.3216 252.649L68.7565 251.476Z" fill="#F4B1B1"></path>
  <path fill-rule="evenodd" clip-rule="evenodd" d="M69.1093 250.891C71.1373 254.428 74.4458 257.809 71.8634 260.812H58.7189C58.6978 260.755 58.6767 260.693 58.6556 260.626C58.5288 260.215 57.9162 260.042 58.3255 258.537C59.086 255.74 61.3251 251.441 62.0962 251.221C63.6224 250.782 65.7876 252.019 69.1093 250.891Z" fill="#355298"></path>
  <path fill-rule="evenodd" clip-rule="evenodd" d="M90.7705 155.267L83.0787 185.573L79.1522 203.616L70.4359 247.562C70.4359 247.562 68.5902 248.378 65.6434 248.213C62.6939 248.047 61.2073 247.624 61.2073 247.624C61.1413 234.648 60.8086 217.199 60.6951 201.517C60.5947 187.722 60.2277 175.458 60.1749 164.998C60.1511 160.468 65.4559 147.662 65.3899 147.828L90.7758 155.27L90.7705 155.267Z" fill="#023452"></path>
  <path fill-rule="evenodd" clip-rule="evenodd" d="M100.49 251.478L100.464 244.299L93.2842 244.464L94.0578 252.65L100.49 251.478Z" fill="#F4B1B1"></path>
  <path fill-rule="evenodd" clip-rule="evenodd" d="M100.965 249.941C100.965 249.941 112.238 254.437 115.401 255.94C117.857 257.107 119.248 259.563 117.231 260.816H92.6555C92.6344 260.759 92.6133 260.697 92.5922 260.63C92.2278 259.452 91.2719 251.036 93.8279 251.225C95.4149 251.341 97.4137 251.718 100.965 249.944" fill="#355298"></path>
  <path fill-rule="evenodd" clip-rule="evenodd" d="M101.096 153.64C103.309 184.454 103.716 212.682 101.178 247.538C101.178 247.538 97.7323 248.261 94.7828 248.093C91.8334 247.927 92.372 247.597 92.372 247.597L85.4697 199.757C85.4697 199.757 83.9092 188.862 80.2574 180.374C77.6195 174.244 74.3849 172.478 74.8628 165.353C75.3566 157.975 74.7176 152.258 75.7632 149.709C76.8088 147.161 82.0344 148.183 82.0344 148.183L101.094 153.64H101.096Z" fill="#023452"></path>
  <path fill-rule="evenodd" clip-rule="evenodd" d="M87.0154 210.99L85.4707 200.189C85.4707 200.189 84.6204 194.203 82.7061 187.623L84.1663 177.387L87.2028 203.057L87.0154 210.988V210.99Z" fill="#1D3975"></path>
  <path fill-rule="evenodd" clip-rule="evenodd" d="M88.2002 115.725C91.5299 122.87 94.0093 130.003 101.638 135.728C113.935 144.959 126.311 148.508 128.043 147.552C129.527 146.734 133.638 143.945 128.529 140.606C125.165 137.951 112.049 126.999 108.656 124.745C107.455 123.947 99.7313 101.902 89.2511 98.1602C88.1922 97.494 85.1108 111.167 88.2028 115.723" fill="#955D9C"></path>
  <path fill-rule="evenodd" clip-rule="evenodd" d="M91.7725 123.424C94.0037 127.858 96.7762 132.08 101.64 135.731C107.666 140.253 115.064 143.956 120.961 146.339C119.03 144.519 116.364 143.465 109.089 136.966C101.814 130.466 96.5201 122.758 96.5201 122.758L91.7725 123.424Z" fill="#955D9C"></path>
  <path fill-rule="evenodd" clip-rule="evenodd" d="M57.017 123.469C58.3055 131.81 60.1064 148.458 59.3749 161.453C76.562 164.34 91.8717 163.753 102.138 160.557C100.379 147.16 103.123 101.138 87.4884 97.5146C81.8378 95.9652 77.4519 96.1047 71.4606 96.7038C60.8299 97.7625 32.888 115.041 27.776 122.708C24.1928 128.084 21.7107 135.813 21.0242 141.432C20.7681 143.508 25.7375 146.741 28.2697 144.562C36.2863 141.636 56.4809 124.36 57.0196 123.467" fill="#955D9C"></path>
  <path fill-rule="evenodd" clip-rule="evenodd" d="M57.1006 124.033C58.4393 132.369 59.6909 150.993 59.3741 161.453C75.0455 164.085 89.5789 164.085 100.379 161.022C93.471 161.805 67.0791 162.213 65.0195 155.739C63.8418 152.036 62.9123 129.841 60.7656 119.031C59.2526 120.658 58.0644 121.461 57.1006 124.033Z" fill="#955D9C"></path>
  <path fill-rule="evenodd" clip-rule="evenodd" d="M87.2285 88.5795C86.0191 90.932 84.72 92.6493 82.8294 93.535L82.8928 96.954L83.4024 97.3775C85.3933 99.464 82.8162 101.445 80.548 101.313C71.6284 101.744 74.4247 98.7074 72.9354 96.2929L73.7989 91.2161C73.5031 91.2006 71.0184 89.9301 70.3768 89.739C69.7351 89.5453 68.7951 88.3368 68.7317 87.0611C68.6683 85.7855 70.6857 86.1986 70.6857 86.1986C68.2432 82.9294 65.4786 80.2619 69.0644 77.3181C72.6502 74.3743 80.886 72.6596 80.886 72.6596L85.8422 70.9785C85.2111 72.6519 86.0561 78.2322 87.3288 81.7158C88.4695 84.8404 88.8524 85.4214 87.2311 88.5821" fill="#F4B1B1"></path>
  <path fill-rule="evenodd" clip-rule="evenodd" d="M75.8064 91.8164C75.8064 91.8164 78.6106 96.5188 80.9131 96.9449C83.2156 97.371 82.038 97.0559 82.8961 96.9552L82.8301 93.5362C81.2432 93.7867 79.6905 93.6628 75.8037 91.8164" fill="#E98385"></path>
  <path fill-rule="evenodd" clip-rule="evenodd" d="M80.5514 101.313C79.4952 102.516 77.6283 104.438 76.5721 105.643C73.789 103.121 72.3368 100.701 70.8818 97.1787C71.3967 96.6699 72.4292 96.1044 72.9441 95.5957C74.1165 97.8139 76.2817 99.7971 80.5514 101.316" fill="white"></path>
  <path fill-rule="evenodd" clip-rule="evenodd" d="M80.5485 101.314C81.7394 102.36 83.6881 103.646 84.879 104.691C85.3199 102.321 85.0242 99.7308 84.24 96.9987L82.9303 96.3066C82.8352 98.2253 81.7156 99.8496 80.5459 101.316" fill="white"></path>
  <path d="M39.2759 154.678L43.7542 190.905L39.738 251.122C39.8726 251.303 40.0073 251.478 40.1393 251.651C40.2423 251.788 40.3453 251.922 40.4483 252.052C40.6938 252.369 40.9394 252.669 41.1823 252.95C41.2906 253.077 41.4015 253.203 41.515 253.322C43.3238 255.272 45.6606 255.742 47.5776 256.199C49.0616 256.553 50.2023 256.726 51.2083 258.665C51.24 258.727 51.2638 258.786 51.2823 258.848C51.4961 259.54 50.9496 260.276 50.1706 260.258L32.6033 259.721C31.7372 259.7 31.048 259.052 30.9583 258.246C30.9451 258.133 30.9424 258.014 30.9583 257.898L32.1306 250.399C32.1306 250.399 32.1307 250.389 32.1359 250.368C31.7082 235.726 28.323 214.27 31.0982 197.17C31.0982 197.17 27.6814 178.626 27.75 177.846C27.8161 177.069 39.2812 154.68 39.2812 154.68" fill="#F4B1B1"></path>
  <path d="M24.7537 184.459C23.9906 190.901 28.5877 194.726 27.8246 201.171C27.814 217.306 16.2539 235.896 12.3459 252.187C12.2165 252.727 13.2014 257.85 13.0879 258.385C11.3531 260.2 6.40213 262.762 5.87402 254.39C8.08677 240.322 10.8382 217.587 16.5364 200.474L12.94 183.41L24.7563 184.459H24.7537Z" fill="#F4B1B1"></path>
  <path fill-rule="evenodd" clip-rule="evenodd" d="M49.2991 150.199C51.0841 160.453 50.1124 186.674 48.1425 206.94C33.8732 210.524 12.8759 209.551 7.63184 205.218C11.1332 178.785 12.9129 153.388 18.5055 148.712C24.4308 141.832 47.5748 143.361 49.3017 150.202" fill="#15A879"></path>
  <path fill-rule="evenodd" clip-rule="evenodd" d="M23.0146 107.889C23.0146 107.889 23.9652 118.388 26.2387 131.584C28.5148 144.779 25.5601 150.073 25.5601 150.073L43.3149 149.663C43.3149 149.663 42.1557 134.254 40.2334 124.816C38.3111 115.377 36.1248 105.949 36.1248 105.949L31.4035 106.654L23.2734 106.525L23.0146 107.891V107.889Z" fill="white"></path>
  <path fill-rule="evenodd" clip-rule="evenodd" d="M34.6494 112.538C39.4024 111.391 39.0776 109.292 39.0776 109.292L33.9814 104.855L22.3394 105.77L21.6396 110.229L23.2715 112.67C27.19 112.566 29.8939 113.687 34.6494 112.54" fill="#F4B1B1"></path>
  <path d="M11.0427 107.131C7.68659 120.52 21.6364 137.873 13.3795 157.535C17.8816 158.147 24.8658 159.875 30.263 159.084C30.9099 155.764 33.0857 150.059 31.6598 133.925C30.2339 117.791 23.2102 106.15 23.2102 106.15L24.5383 106.392L30.7277 106.522L34.3214 105.817C34.3214 105.817 38.2452 116.017 39.5787 124.616C40.9121 133.215 40.7062 154.635 41.0178 159.526C45.3772 159.221 53.1087 160.141 51.7409 156.159C50.7295 153.22 48.097 139.815 47.9966 135.436C47.8197 127.585 49.9928 124.102 48.6277 119.542C47.1226 114.503 42.9981 106.124 40.4263 105.096C28.2852 101.767 16.0385 99.8359 11.04 107.126" fill="#FB7019"></path>
  <path d="M42.8055 156.875C44.0941 161.21 53.3306 159.516 51.7437 156.164C50.9726 154.532 49.3883 145.802 48.6754 141.59C47.8225 147.565 41.7493 153.714 42.8055 156.875Z" fill="#FB7019"></path>
  <path d="M11.9561 124.245C14.615 130.939 16.9493 139.662 15.2488 154.781C16.7407 154.985 26.096 158.841 27.7014 158.995C28.6599 155.605 22.1299 153.234 18.7739 148.114C18.7237 147.401 18.5336 146.185 18.4728 145.464C17.7097 136.602 16.0885 127.45 13.6196 120.994L11.9587 124.245H11.9561Z" fill="#FB7019"></path>
  <path fill-rule="evenodd" clip-rule="evenodd" d="M33.0768 100.728L33.1375 103.976L33.6207 104.379C35.5113 106.362 33.4649 110.432 31.3076 110.308C29.1582 110.411 27.2069 109.794 25.7309 108.864C23.4627 107.434 22.3193 105.265 23.3122 103.829L24.0225 103.054L24.1809 98.4577C23.8983 98.4422 21.8546 97.3034 21.2446 97.1226C20.6373 96.9393 19.7422 95.7927 19.6815 94.5791C19.6207 93.368 21.5377 93.7605 21.5377 93.7605C19.2167 90.6565 16.5921 88.1207 19.9983 85.3266C23.4046 82.53 31.2284 80.9006 31.2284 80.9006L35.9364 79.3047C35.337 80.8928 36.1397 86.1943 37.3465 89.5048C39.0628 94.2098 38.1122 98.3751 33.0768 100.733" fill="#F4B1B1"></path>
  <path fill-rule="evenodd" clip-rule="evenodd" d="M26.4014 99.0918C26.4014 99.0918 29.0656 103.559 31.252 103.965C33.4383 104.37 32.3214 104.07 33.1373 103.975L33.0766 100.726C31.5688 100.964 30.0954 100.848 26.4014 99.0918Z" fill="#E98385"></path>
  <path d="M12.5807 105.897C0.497777 110.796 -1.03636 136.237 1.44044 143.508C3.52116 149.406 19.417 165.034 24.6004 162.912C27.1009 161.889 29.5143 158.543 25.7516 156.154C20.2541 153.776 12.3484 142.37 12.0342 140.905C10.5449 130.062 19.4197 104.841 12.5807 105.9" fill="#FB7019"></path>
  <path fill-rule="evenodd" clip-rule="evenodd" d="M26.2126 157.974L28.3487 159.126C29.0036 159.136 38.3721 158.708 36.8881 159.934C36.03 160.644 33.6245 161.626 33.6588 161.729C34.1024 163.074 38.8289 163.312 38.8738 163.433C39.5287 165.151 35.1269 164.384 34.3876 164.12C34.1948 164.051 37.4479 165.326 37.1258 165.719C36.5026 166.48 34.2159 165.339 33.1333 165.218C32.8693 165.189 35.8663 166.3 35.6101 166.824C34.7308 167.312 32.3834 166.15 31.7339 166.06C31.5781 166.039 34.0918 167.134 34.2846 167.467C34.4483 167.748 33.9625 168.035 33.6086 167.919C28.4121 166.227 30.1496 164.497 24.1477 162.713C20.8074 161.721 24.2876 157.236 26.2126 157.972" fill="#F4B1B1"></path>
  <path fill-rule="evenodd" clip-rule="evenodd" d="M27.1487 88.1825C27.1487 88.1825 33.9058 88.4046 36.4248 86.269C41.7085 81.83 38.4924 71.2374 24.9861 75.1599C14.2393 78.2819 19.4992 88.6008 5.51502 92.8745C0.334343 94.4575 0.949582 96.9959 5.49654 98.7209C2.39394 99.7926 5.39356 102.762 8.2638 102.406C2.7953 106.69 14.6353 110.026 23.3121 103.826C28.3053 100.247 19.5309 89.3006 27.1461 88.1851" fill="#023452"></path>
  <path fill-rule="evenodd" clip-rule="evenodd" d="M37.6533 105.237C51.0882 103.63 60.0712 125.949 61.6291 133.732C62.8279 140.08 53.1346 158.461 47.3598 159.132C46.0131 159.29 42.5276 156.883 44.1753 153.789C47.8879 148.906 51.7298 138.817 51.2492 137.34C49.5989 133.314 46.8105 130.931 43.4333 128.904C40.9777 127.429 41.8464 122.006 40.1565 116.738C38.4903 111.54 34.2232 106.494 37.6506 105.239" fill="#FB7019"></path>
  <path fill-rule="evenodd" clip-rule="evenodd" d="M50.8689 136.44C50.5203 135.774 48.4106 133.749 48.0171 133.173C48.2337 126.87 49.8602 123.642 48.635 119.546C47.695 116.401 45.7331 111.954 43.7686 108.807C46.0684 111.851 48.6324 117.442 49.7519 121.186C50.9903 125.331 51.0537 129.992 50.8689 136.443" fill="#FB7019"></path>
  <path fill-rule="evenodd" clip-rule="evenodd" d="M44.1638 155.266L42.8065 156.872C42.2784 157.087 34.5206 159.674 36.1287 160.206C37.0581 160.513 39.3369 160.557 39.3422 160.653C39.4214 161.884 35.1253 166.476 35.1279 166.589C35.157 168.19 38.0589 165.433 38.5738 164.986C38.7085 164.87 36.9974 166.861 37.177 167.349C37.2483 167.54 37.9189 167.498 38.4735 166.992C39.1521 166.373 40.1423 165.128 40.3667 165.141C40.5991 165.154 38.8326 167.158 39.1494 167.517C39.3527 167.733 39.6617 167.519 40.0762 167.119C40.7628 166.458 41.6025 165.249 41.8454 165.205C42.0962 165.159 40.6281 167.034 40.6598 167.261C40.7047 167.563 41.0453 167.449 41.1826 167.338C44.8503 164.333 43.163 162.383 47.4591 159.049C49.8488 157.195 45.587 153.877 44.1638 155.263" fill="#F4B1B1"></path>
  <path fill-rule="evenodd" clip-rule="evenodd" d="M131.462 143.199C132.455 142.962 136.4 142.066 137.303 142.406C137.765 142.58 137.662 142.719 137.538 142.949C137.427 143.15 137.015 143.47 136.682 143.581C135.985 143.816 135.069 144.772 134.665 144.844C136.418 148.591 141.971 150.135 140.733 151.94C140.318 152.103 137.702 152.157 137.033 152.343C134.905 152.94 133.791 153.009 127.456 147.638C125.315 145.823 127.295 143.868 129.012 142.866L131.465 143.199H131.462Z" fill="#F4B1B1"></path>
  <path fill-rule="evenodd" clip-rule="evenodd" d="M85.4134 77.2284C81.1727 79.5551 76.0924 77.1664 73.6869 80.1593C72.496 81.6416 72.6993 83.7074 74.2202 86.8553C74.6691 87.7823 75.2448 88.4563 73.5892 87.7797C72.8287 87.4698 71.5797 87.0412 71.1731 87.3872C70.2648 88.1593 70.7981 89.6984 71.5639 90.1709C71.9045 90.3827 72.5488 90.6926 72.5488 90.6926C61.2844 90.016 56.1961 64.7429 80.9879 66.6642C81.6876 66.7184 81.207 64.7326 81.9384 64.7068C87.5073 64.5028 92.4556 72.9004 85.4186 77.2258" fill="#023452"></path>
</svg>
